<?xml version="1.0" standalone="no"?><!DOCTYPE svg PUBLIC "-//W3C//DTD SVG 1.1//EN" "http://www.w3.org/Graphics/SVG/1.1/DTD/svg11.dtd"><svg t="1764267132097" class="icon" viewBox="0 0 1024 1024" version="1.1" xmlns="http://www.w3.org/2000/svg" p-id="11230" xmlns:xlink="http://www.w3.org/1999/xlink" width="200" height="200"><path d="M302.083 591.894a9.977 9.977 0 0 1-7.421-3.293c-3.703-4.096-3.386-10.42 0.711-14.124 44.538-40.27 90.178-60.369 139.528-61.445 43.849-0.946 85.196 12.387 128.938 26.515 50.348 16.261 102.399 33.077 160.656 27.468 5.491-0.527 10.383 3.499 10.912 8.996 0.529 5.498-3.498 10.383-8.996 10.913-62.358 6.004-116.433-11.457-168.72-28.344-84.968-27.442-158.352-51.143-248.905 30.733a9.966 9.966 0 0 1-6.703 2.581zM483.188 471.621a9.979 9.979 0 0 1-7.74-3.662c-3.501-4.272-2.876-10.573 1.396-14.073 30.37-24.888 45.853-55.658 46.017-91.456 0.122-26.807-8.613-46.146-8.702-46.338-2.305-5.019-0.104-10.956 4.915-13.26 5.015-2.305 10.956-0.105 13.261 4.915 0.436 0.949 10.669 23.596 10.526 54.775-0.133 28.905-9.494 70.903-53.341 106.834a9.967 9.967 0 0 1-6.332 2.265zM269.547 623.896a9.999 9.999 0 0 1-2.457-0.307c-5.354-1.353-8.599-6.79-7.246-12.145 8.901-35.23 7.226-67.966-4.979-97.297-9.138-21.96-21.108-33.739-21.229-33.855-3.95-3.837-4.068-10.161-0.247-14.126 3.823-3.966 10.117-4.108 14.098-0.302 0.592 0.566 14.606 14.142 25.405 39.558 9.832 23.14 18.913 61.168 6.343 110.922-1.146 4.531-5.217 7.552-9.688 7.552z" fill="#515151" p-id="11231"></path><path d="M161.199 777.632a9.956 9.956 0 0 1-4.489-1.07c-4.933-2.484-6.918-8.496-4.435-13.429 46.315-91.981 112.652-170.362 197.168-232.964 73.315-54.244 162.023-98.315 271.196-134.734 5.24-1.748 10.902 1.083 12.65 6.322 1.747 5.239-1.083 10.903-6.322 12.65-107.145 35.743-194.031 78.867-265.624 131.836-81.977 60.721-146.309 136.72-191.205 225.884a9.998 9.998 0 0 1-8.939 5.505z" fill="#515151" p-id="11232"></path><path d="M161.188 788.884a19.91 19.91 0 0 1-10.462-2.969c-9.407-5.789-12.341-18.108-6.552-27.515 36.596-59.473 81.177-96.843 136.292-114.246 48.555-15.331 98.163-13.924 150.679-12.437 58.691 1.664 119.383 3.385 178.915-20.397 176.129-70.394 221.261-226.3 232.486-312.969 0.908-7.022-0.356-18.666-4.479-21.671-2.746-2.003-12.798-2.854-33.028 6.665-68.302 32.144-136.193 37.066-208.07 42.278-53.912 3.909-109.66 7.951-168.044 24.212-84.266 23.399-185.88 78.092-224.146 295.178-1.917 10.879-12.303 18.141-23.168 16.225-10.878-1.917-18.142-12.29-16.225-23.168 17.629-100.01 49.07-175.347 96.122-230.314 40.004-46.735 91.261-78.286 156.698-96.457 62.221-17.33 119.996-21.519 175.869-25.57 68.064-4.935 132.354-9.597 193.931-38.575 31.235-14.698 56.004-15.637 73.621-2.798 25.08 18.28 21.122 55.004 20.588 59.132-21.329 164.671-112.711 287.185-257.313 344.979-67.229 26.856-132.127 25.017-194.891 23.236-97.839-2.774-182.342-5.168-251.771 107.662-3.777 6.136-10.337 9.518-17.052 9.519z" fill="#515151" p-id="11233"></path><path d="M161.967 787.633c-3.3 0-6.646-0.818-9.731-2.541-9.645-5.385-13.098-17.568-7.712-27.213 14.863-26.62 22.72-56.917 22.72-87.615 0-8.535-0.643-17.328-1.911-26.134-1.574-10.933 6.013-21.072 16.945-22.646 10.922-1.572 21.071 6.012 22.646 16.945 1.539 10.688 2.319 21.398 2.319 31.835 0 37.509-9.611 74.549-27.796 107.116-3.661 6.558-10.468 10.253-17.48 10.253z" fill="#515151" p-id="11234"></path></svg>