<?xml version="1.0" standalone="no"?><!DOCTYPE svg PUBLIC "-//W3C//DTD SVG 1.1//EN" "http://www.w3.org/Graphics/SVG/1.1/DTD/svg11.dtd"><svg t="1764267591349" class="icon" viewBox="0 0 1024 1024" version="1.1" xmlns="http://www.w3.org/2000/svg" p-id="3598" xmlns:xlink="http://www.w3.org/1999/xlink" width="200" height="200"><path d="M830.836364 304.872727h-214.109091v-9.309091C619.054545 221.090909 558.545455 162.909091 484.072727 162.909091H242.036364c-74.472727 0-132.654545 60.509091-132.654546 132.654545v488.727273c0 60.509091 48.872727 109.381818 109.381818 109.381818h612.072728c60.509091 0 109.381818-48.872727 109.381818-109.381818v-372.363636c0-58.181818-48.872727-107.054545-109.381818-107.054546z m-651.636364-9.309091c0-34.909091 27.927273-62.836364 62.836364-62.836363h242.036363c34.909091 0 62.836364 27.927273 62.836364 62.836363v9.309091H179.2v-9.309091z m651.636364 528.290909H218.763636c-20.945455 0-39.563636-16.290909-39.563636-39.563636V374.690909h651.636364c20.945455 0 39.563636 16.290909 39.563636 39.563636v53.527273h-197.818182c-72.145455 0-128 58.181818-128 128v9.309091c0 72.145455 58.181818 128 128 128h197.818182v51.2c0 23.272727-18.618182 39.563636-39.563636 39.563636z m34.909091-286.254545v125.672727h-193.163637c-32.581818 0-58.181818-25.6-58.181818-58.181818v-6.981818c0-32.581818 25.6-58.181818 58.181818-58.181818h193.163637z" p-id="3599" fill="#707070"></path></svg>