<?xml version="1.0" standalone="no"?><!DOCTYPE svg PUBLIC "-//W3C//DTD SVG 1.1//EN" "http://www.w3.org/Graphics/SVG/1.1/DTD/svg11.dtd"><svg t="1763895172222" class="icon" viewBox="0 0 1024 1024" version="1.1" xmlns="http://www.w3.org/2000/svg" p-id="1720" xmlns:xlink="http://www.w3.org/1999/xlink" width="200" height="200"><path d="M538.197333 100.266667l341.333334 265.514666a42.666667 42.666667 0 0 1 16.469333 33.706667v491.093333a42.666667 42.666667 0 0 1-42.666667 42.666667h-234.666666a42.666667 42.666667 0 0 1-42.666667-42.666667V693.333333a8.533333 8.533333 0 0 0-8.533333-8.533333h-110.933334a8.533333 8.533333 0 0 0-8.533333 8.533333v197.248a42.666667 42.666667 0 0 1-42.666667 42.666667H170.666667a42.666667 42.666667 0 0 1-42.666667-42.666667V399.488a42.666667 42.666667 0 0 1 16.469333-33.706667l341.333334-265.472a42.666667 42.666667 0 0 1 52.394666 0zM512 160.981333L192 409.813333v459.434667H384V693.333333a72.533333 72.533333 0 0 1 66.261333-72.277333l6.272-0.256h110.933334a72.533333 72.533333 0 0 1 72.533333 72.533333v175.914667h192V409.856L512 160.938667z" fill="#000000" p-id="1721"></path></svg>