<?xml version="1.0" standalone="no"?><!DOCTYPE svg PUBLIC "-//W3C//DTD SVG 1.1//EN" "http://www.w3.org/Graphics/SVG/1.1/DTD/svg11.dtd"><svg t="1763895278311" class="icon" viewBox="0 0 1024 1024" version="1.1" xmlns="http://www.w3.org/2000/svg" p-id="2030" xmlns:xlink="http://www.w3.org/1999/xlink" width="200" height="200"><path d="M846.165333 803.541333a113.792 113.792 0 0 1 113.536 106.581334l0.256 7.210666h-341.333333a113.792 113.792 0 0 1 113.749333-113.792h113.792zM492.8 85.205333c87.893333 0 159.872 69.12 177.322667 160h98.517333a42.666667 42.666667 0 0 1 42.624 39.466667l17.749333 248.661333h-64.256l-15.957333-224.128H232.490667L193.664 853.333333h360.917333v64H170.666667a42.666667 42.666667 0 0 1-42.709334-42.666666L128 871.466667l42.026667-586.794667a42.666667 42.666667 0 0 1 42.624-39.466667h102.826666c17.408-90.88 89.429333-160 177.28-160zM789.290667 576a94.805333 94.805333 0 1 1 0 189.610667 94.805333 94.805333 0 0 1 0-189.610667zM492.8 149.205333c-51.498667 0-96.298667 39.893333-111.658667 96h223.317334c-15.36-56.106667-60.16-96-111.658667-96z" fill="#000000" p-id="2031"></path></svg>